<svg xmlns="http://www.w3.org/2000/svg" viewBox="0 0 180 180">
  <defs>
    <linearGradient id="bg" x1="0%" y1="0%" x2="100%" y2="100%">
      <stop offset="0%" stop-color="#0b0b0b" />
      <stop offset="100%" stop-color="#1a1a1a" />
    </linearGradient>
    <linearGradient id="ring" x1="0%" y1="0%" x2="100%" y2="0%">
      <stop offset="0%" stop-color="#d4af37" />
      <stop offset="100%" stop-color="#00e676" />
    </linearGradient>
  </defs>

  <rect x="8" y="8" width="164" height="164" rx="38" fill="url(#bg)" />

  <path
    d="M30 90c12.9-19.6 35.2-30.8 60-30.8s47.1 11.2 60 30.8c-12.9 19.6-35.2 30.8-60 30.8S42.9 109.6 30 90Z"
    fill="none"
    stroke="url(#ring)"
    stroke-width="10"
    stroke-linecap="round"
    stroke-linejoin="round"
  />

  <circle cx="90" cy="90" r="25" fill="#d4af37" />
  <circle cx="90" cy="90" r="14.5" fill="#0d0d0d" />
  <circle cx="99" cy="81" r="4.2" fill="#f5f5f5" />

  <path
    d="M136 40l3.5 7.5 7.5 3.5-7.5 3.5-3.5 7.5-3.5-7.5-7.5-3.5 7.5-3.5 3.5-7.5Z"
    fill="#d4af37"
  />
</svg>
