<svg xmlns="http://www.w3.org/2000/svg" viewBox="0 0 64 64">
  <defs>
    <linearGradient id="bg" x1="0%" y1="0%" x2="100%" y2="100%">
      <stop offset="0%" stop-color="#0b0b0b" />
      <stop offset="100%" stop-color="#1a1a1a" />
    </linearGradient>
    <linearGradient id="ring" x1="0%" y1="0%" x2="100%" y2="0%">
      <stop offset="0%" stop-color="#d4af37" />
      <stop offset="100%" stop-color="#00e676" />
    </linearGradient>
  </defs>

  <rect x="2" y="2" width="60" height="60" rx="14" fill="url(#bg)" />

  <path
    d="M10 32c4.6-7 12.5-11 22-11s17.4 4 22 11c-4.6 7-12.5 11-22 11s-17.4-4-22-11Z"
    fill="none"
    stroke="url(#ring)"
    stroke-width="4"
    stroke-linecap="round"
    stroke-linejoin="round"
  />

  <circle cx="32" cy="32" r="9" fill="#d4af37" />
  <circle cx="32" cy="32" r="5.5" fill="#0d0d0d" />
  <circle cx="35" cy="29" r="1.6" fill="#f5f5f5" />

  <path
    d="M49 15l1.3 2.8L53 19l-2.7 1.2L49 23l-1.3-2.8L45 19l2.7-1.2L49 15Z"
    fill="#d4af37"
  />
</svg>
